<svg width="58" height="59" viewBox="0 0 58 59" fill="none" xmlns="http://www.w3.org/2000/svg">
<rect width="58" height="59" fill="#E5E5E5"/>
<g clip-path="url(#clip0_0_1)">
<rect width="1400" height="6811" transform="translate(-715 -936)" fill="white"/>
<g clip-path="url(#clip1_0_1)">
<path fill-rule="evenodd" clip-rule="evenodd" d="M-22.6575 381.829C-507.262 382.422 -993.12 108.867 -1135.41 21.8361C-1148.05 14.1049 -1142.49 -4.45393 -1127.68 -4.47208L1096.89 -7.19665C1111.75 -7.21485 1117.32 11.4038 1104.62 19.1203C960.787 106.532 469.691 381.226 -22.6575 381.829Z" fill="url(#paint0_linear_0_1)"/>
<g clip-path="url(#clip2_0_1)" filter="url(#filter0_d_0_1)">
<rect x="4" y="0.830078" width="50" height="50" rx="19" fill="#740A76"/>
<path d="M29 33.9729C29.1429 33.9729 29.2857 33.9194 29.3929 33.8122L34.9554 28.4551C35.0357 28.3747 37 26.5801 37 24.4372C37 21.8211 35.4018 20.2586 32.7321 20.2586C31.1696 20.2586 29.7054 21.4908 29 22.1872C28.2946 21.4908 26.8304 20.2586 25.2679 20.2586C22.5982 20.2586 21 21.8211 21 24.4372C21 26.5801 22.9643 28.3747 23.0357 28.4372L28.6071 33.8122C28.7143 33.9194 28.8571 33.9729 29 33.9729Z" fill="white"/>
</g>
</g>
</g>
<defs>
<filter id="filter0_d_0_1" x="0" y="0.830078" width="58" height="58" filterUnits="userSpaceOnUse" color-interpolation-filters="sRGB">
<feFlood flood-opacity="0" result="BackgroundImageFix"/>
<feColorMatrix in="SourceAlpha" type="matrix" values="0 0 0 0 0 0 0 0 0 0 0 0 0 0 0 0 0 0 127 0" result="hardAlpha"/>
<feOffset dy="4"/>
<feGaussianBlur stdDeviation="2"/>
<feColorMatrix type="matrix" values="0 0 0 0 0 0 0 0 0 0 0 0 0 0 0 0 0 0 0.25 0"/>
<feBlend mode="normal" in2="BackgroundImageFix" result="effect1_dropShadow_0_1"/>
<feBlend mode="normal" in="SourceGraphic" in2="effect1_dropShadow_0_1" result="shape"/>
</filter>
<linearGradient id="paint0_linear_0_1" x1="1104.9" y1="380.519" x2="1104.44" y2="-8.498" gradientUnits="userSpaceOnUse">
<stop stop-color="#EDEDED"/>
<stop offset="1" stop-color="white" stop-opacity="0.01"/>
</linearGradient>
<clipPath id="clip0_0_1">
<rect width="1400" height="6811" fill="white" transform="translate(-715 -936)"/>
</clipPath>
<clipPath id="clip1_0_1">
<rect width="2211" height="543" fill="white" transform="translate(-1121 -161.17)"/>
</clipPath>
<clipPath id="clip2_0_1">
<rect width="50" height="50" fill="white" transform="translate(4 0.830078)"/>
</clipPath>
</defs>
</svg>
